<svg xmlns="http://www.w3.org/2000/svg" xmlns:xlink="http://www.w3.org/1999/xlink" width="4145" height="1267" viewBox="0 0 4145 1267">
  <defs>
    <clipPath id="clip-test_1">
      <rect width="4145" height="1267"/>
    </clipPath>
  </defs>
  <g id="test_1" data-name="test – 1" clip-path="url(#clip-test_1)">
    <path id="Union_49" data-name="Union 49" d="M12699-15173v-955.851h220v38.874a275.5,275.5,0,0,1,25.313-13.682,264.25,264.25,0,0,1,54-18.789,259.664,259.664,0,0,1,57.981-6.552,259.655,259.655,0,0,1,57.98,6.552,264.394,264.394,0,0,1,54.009,18.789,279.7,279.7,0,0,1,48.871,29.735,300.088,300.088,0,0,1,42.579,39.382,319.838,319.838,0,0,1,35.128,47.729,336.682,336.682,0,0,1,26.529,54.779,350.638,350.638,0,0,1,16.764,60.54,362.883,362.883,0,0,1,5.842,65,362.955,362.955,0,0,1-5.842,65,350.212,350.212,0,0,1-16.764,60.535,336.527,336.527,0,0,1-26.529,54.779,319.586,319.586,0,0,1-35.128,47.729,299.8,299.8,0,0,1-42.579,39.382,279.64,279.64,0,0,1-48.871,29.735,264.292,264.292,0,0,1-54.009,18.789,259.655,259.655,0,0,1-57.98,6.552,259.664,259.664,0,0,1-57.981-6.552,264.25,264.25,0,0,1-54-18.789,275.5,275.5,0,0,1-25.312-13.682V-15173Zm184.568-653.4c0,.008,0,.021,0,.029-.008.049-.016.1-.021.152a139.7,139.7,0,0,0-1.382,18.055v.2a.146.146,0,0,1,0,.041v.445c0,.037,0,.083,0,.124v1.708c0,.042,0,.083,0,.124v.441a.164.164,0,0,1,0,.041v.2a139.77,139.77,0,0,0,1.382,18.06c0,.049.013.095.021.144,0,.009,0,.025,0,.033,9.684,67.45,67.846,119.453,137.933,119.453,76.837,0,139.344-62.512,139.344-139.348s-62.507-139.349-139.344-139.349C12951.415-15945.847,12893.253-15893.844,12883.569-15826.4Zm-642.068,335.844a321.037,321.037,0,0,1-60.535-18.789,322.391,322.391,0,0,1-54.779-29.735,324.515,324.515,0,0,1-47.729-39.382,324.515,324.515,0,0,1-39.382-47.729,322.577,322.577,0,0,1-29.735-54.779,321.015,321.015,0,0,1-18.789-60.535,324.839,324.839,0,0,1-6.552-65,324.774,324.774,0,0,1,6.552-65,320.974,320.974,0,0,1,18.789-60.54,322.725,322.725,0,0,1,29.735-54.779,324.515,324.515,0,0,1,39.382-47.729,324.824,324.824,0,0,1,47.729-39.382,322.459,322.459,0,0,1,54.779-29.735,321.037,321.037,0,0,1,60.535-18.789,324.846,324.846,0,0,1,65-6.552,324.774,324.774,0,0,1,65,6.552,321.084,321.084,0,0,1,60.54,18.789,322.794,322.794,0,0,1,54.779,29.735,324.824,324.824,0,0,1,47.729,39.382,324.824,324.824,0,0,1,39.382,47.729,322.725,322.725,0,0,1,29.735,54.779,321.084,321.084,0,0,1,18.789,60.54,324.774,324.774,0,0,1,6.552,65,324.839,324.839,0,0,1-6.552,65,321.015,321.015,0,0,1-18.789,60.535,322.577,322.577,0,0,1-29.735,54.779,324.824,324.824,0,0,1-39.382,47.729,324.515,324.515,0,0,1-47.729,39.382,322.725,322.725,0,0,1-54.779,29.735,321.084,321.084,0,0,1-60.54,18.789,324.774,324.774,0,0,1-65,6.552A324.846,324.846,0,0,1,12241.5-15490.554Zm-74.353-315.944c0,76.832,62.516,139.348,139.348,139.348s139.349-62.516,139.349-139.348-62.512-139.353-139.349-139.353S12167.148-15883.335,12167.148-15806.5Zm-1103.591,315.944a263.951,263.951,0,0,1-53.967-18.789,279.373,279.373,0,0,1-48.838-29.735,299.586,299.586,0,0,1-42.546-39.382,319.579,319.579,0,0,1-35.107-47.729,336.913,336.913,0,0,1-26.509-54.779,349.745,349.745,0,0,1-16.752-60.535,362.955,362.955,0,0,1-5.842-65,362.977,362.977,0,0,1,5.842-65,350.205,350.205,0,0,1,16.752-60.535,336.913,336.913,0,0,1,26.509-54.779,319.307,319.307,0,0,1,35.107-47.729,299.586,299.586,0,0,1,42.546-39.382,279.432,279.432,0,0,1,48.838-29.735,263.951,263.951,0,0,1,53.967-18.789,259.276,259.276,0,0,1,57.94-6.552,259.268,259.268,0,0,1,57.939,6.552,263.951,263.951,0,0,1,53.967,18.789,274.582,274.582,0,0,1,25.593,13.867V-16440h220v955.85h-220v-39.06a274.582,274.582,0,0,1-25.593,13.867,263.951,263.951,0,0,1-53.967,18.789,259.268,259.268,0,0,1-57.939,6.552A259.276,259.276,0,0,1,11063.558-15490.554Zm-46.408-315.944c0,76.832,62.512,139.348,139.349,139.348,70.082,0,128.249-52.007,137.933-119.453,0-.008,0-.021,0-.028,0-.05.013-.1.021-.148a140.535,140.535,0,0,0,1.383-18.06v-.239c0-.054,0-.1,0-.152v-.417a.809.809,0,0,0,0-.1v-1.506a.952.952,0,0,0,0-.1v-.408c0-.054,0-.1,0-.157v-.239a140.507,140.507,0,0,0-1.383-18.059c-.008-.05-.012-.1-.021-.145,0-.009,0-.025,0-.033-9.684-67.45-67.851-119.453-137.933-119.453C11079.661-15945.851,11017.149-15883.335,11017.149-15806.5ZM10619-15484c-121.449,0-219.914-98.419-220-219.853v-736h220V-16129h130v220h-130v139.047a66.639,66.639,0,0,0,65.854,65.952H10749v220Zm-980,0v-642.909h220V-15484Zm-220,0c-121.449,0-219.914-98.419-220-219.853v-736h220v669.9a66.636,66.636,0,0,0,65.854,65.952H9549v220Zm2150-.074v-425c.083-121.434,98.552-219.853,220-219.853h130v220h-130v424.852Zm-90-.074v0Zm-1520,0v-736c.086-121.429,98.551-219.852,220-219.852h130v220h-130v92h130v220h-130v423.853Zm1830-424.781h66.369a66.558,66.558,0,0,0-66.369,65.854ZM10179-16220h66.373a66.555,66.555,0,0,0-66.373,65.85Zm-540,.145V-16440h220v220.145Z" transform="translate(-9198.998 16440)" fill="#06f"/>
  </g>
</svg>
